<svg width="35" height="23" viewBox="0 0 35 23" fill="none" xmlns="http://www.w3.org/2000/svg">
<rect width="34.2779" height="22.8519" rx="11.426" fill="white"/>
<path d="M31.4214 0H2.85649C1.27889 0 0 1.27889 0 2.85649V19.9954C0 21.573 1.27889 22.8519 2.85649 22.8519H31.4214C32.999 22.8519 34.2779 21.573 34.2779 19.9954V2.85649C34.2779 1.27889 32.999 0 31.4214 0Z" fill="white"/>
<path d="M23.043 8.56946H21.9962V14.2344H23.043V8.56946Z" fill="black"/>
<path d="M30.4725 10.077V10.9561H29.3902V12.9333C29.3902 13.0982 29.4266 13.2414 29.4827 13.2981C29.5438 13.36 29.6493 13.3914 29.7964 13.3914H30.4725V14.2705H29.5485C29.1415 14.2705 28.8357 14.1725 28.6394 13.9791C28.443 13.786 28.3435 13.4934 28.3435 13.1095V8.93089H29.3902V10.077H30.4725Z" fill="black"/>
<path d="M14.8864 13.1318L15.9686 10.0769H17.0682L15.506 14.2345H14.2669L12.7046 10.0769H13.8042L14.8864 13.1318Z" fill="black"/>
<path d="M26.5153 12.8403C26.5964 12.6519 26.6375 12.4229 26.6375 12.1597V10.077H27.6842V14.2344H26.7655L26.6718 13.7498C26.548 13.886 26.3901 14.0074 26.2015 14.1113C25.9948 14.2249 25.724 14.2824 25.3967 14.2824C25.1696 14.2824 24.9518 14.2511 24.7493 14.1893C24.5458 14.1271 24.3633 14.0216 24.2071 13.8754C24.0508 13.7291 23.9252 13.532 23.8337 13.2897C23.7423 13.0481 23.696 12.7434 23.696 12.3841V10.077H24.7427V12.2719C24.7427 12.6499 24.8175 12.938 24.9651 13.128C25.1112 13.3161 25.337 13.4115 25.6362 13.4115C25.8453 13.4115 26.0259 13.3629 26.1728 13.2671C26.3196 13.1713 26.4349 13.0276 26.5153 12.8403Z" fill="black"/>
<path fill-rule="evenodd" clip-rule="evenodd" d="M20.3962 10.2963C20.0664 10.1189 19.6747 10.029 19.2322 10.029C18.7951 10.029 18.4049 10.1189 18.0723 10.2962C17.7393 10.474 17.4777 10.7251 17.2947 11.0425C17.1119 11.3597 17.0192 11.7355 17.0192 12.1597C17.0192 12.5786 17.1119 12.9519 17.2947 13.269C17.4776 13.5863 17.7393 13.8374 18.0723 14.0151C18.4049 14.1925 18.7951 14.2824 19.2322 14.2824C19.6747 14.2824 20.0664 14.1925 20.3962 14.0151C20.7264 13.8374 20.9867 13.5864 21.1697 13.269C21.3525 12.9517 21.4452 12.5785 21.4452 12.1597C21.4452 11.7357 21.3525 11.3598 21.1697 11.0425C20.9865 10.7251 20.7264 10.474 20.3962 10.2963ZM19.8432 13.2669C19.6746 13.3734 19.469 13.4274 19.2322 13.4274C19.0009 13.4274 18.7966 13.3734 18.6252 13.2668C18.4534 13.1601 18.3188 13.0096 18.2248 12.8192C18.1304 12.6287 18.0825 12.4068 18.0825 12.1597C18.0825 11.9075 18.1303 11.6843 18.2248 11.4964C18.3187 11.3086 18.4535 11.158 18.6254 11.0486C18.7968 10.9393 19.001 10.884 19.2322 10.884C19.4689 10.884 19.6744 10.9393 19.8431 11.0485C20.0122 11.1579 20.1457 11.3086 20.2398 11.4964C20.3341 11.6848 20.382 11.908 20.382 12.1597C20.382 12.4063 20.3341 12.6282 20.2398 12.8192C20.1457 13.0096 20.0123 13.1602 19.8432 13.2669Z" fill="black"/>
<path d="M3.8125 9.96756H4.90027V14.2345H3.8125V9.96756Z" fill="black"/>
<path d="M8.31147 10.2116C8.31147 9.30614 7.55142 8.56952 6.61715 8.56952H3.8125V9.48075H6.48381C6.90661 9.48075 7.25684 9.80298 7.26458 10.199C7.26844 10.3973 7.19173 10.5845 7.04856 10.726C6.90534 10.8675 6.71397 10.9456 6.50973 10.9456H5.46912C5.43217 10.9456 5.4021 10.9747 5.4021 11.0105V11.8204C5.4021 11.8342 5.40649 11.8473 5.41474 11.8584L7.1803 14.2345H8.47271L6.70306 11.8519C7.59426 11.8085 8.31147 11.0821 8.31147 10.2116Z" fill="black"/>
<path fill-rule="evenodd" clip-rule="evenodd" d="M10.5504 10.029C10.9709 10.029 11.3429 10.1108 11.6563 10.2721C11.9696 10.4334 12.2187 10.6656 12.3968 10.962C12.5742 11.258 12.667 11.6124 12.6726 12.0152C12.6726 12.0748 12.6711 12.1338 12.6685 12.1929C12.6655 12.2535 12.6584 12.3138 12.6475 12.3723L12.6439 12.391H9.49979V12.4244C9.51058 12.6379 9.56104 12.826 9.64971 12.9823C9.73803 13.1381 9.86555 13.2604 10.0286 13.346C10.1925 13.432 10.382 13.4756 10.5919 13.4756C10.8395 13.4756 11.0532 13.4176 11.2272 13.3032C11.3893 13.1969 11.5005 13.0465 11.5578 12.8562L11.5627 12.8399H12.6036L12.5979 12.8671C12.5448 13.1222 12.4362 13.3568 12.2754 13.5641C12.106 13.7823 11.8794 13.9585 11.6018 14.0879C11.3243 14.217 11.0012 14.2824 10.6413 14.2824C10.1877 14.2824 9.78918 14.1939 9.45695 14.0192C9.12409 13.8446 8.86374 13.5948 8.68322 13.2769C8.50312 12.9597 8.41185 12.5866 8.41185 12.1678C8.41185 11.7381 8.50173 11.3596 8.67907 11.0428C8.85659 10.7252 9.10984 10.474 9.43173 10.2964C9.75311 10.1189 10.1295 10.029 10.5504 10.029ZM11.6058 11.6721C11.565 11.4085 11.4537 11.201 11.2749 11.055C11.0901 10.9043 10.8491 10.8278 10.5587 10.8278C10.3869 10.8278 10.225 10.8635 10.0775 10.9338C9.93015 11.0039 9.80656 11.104 9.71009 11.2314C9.61813 11.353 9.55959 11.5011 9.53593 11.6721H11.6058Z" fill="black"/>
<path fill-rule="evenodd" clip-rule="evenodd" d="M31.4214 0.952163H2.85649C1.80476 0.952163 0.952163 1.80476 0.952163 2.85649V19.9954C0.952163 21.0472 1.80476 21.8998 2.85649 21.8998H31.4214C32.4731 21.8998 33.3257 21.0472 33.3257 19.9954V2.85649C33.3257 1.80476 32.4731 0.952163 31.4214 0.952163ZM2.85649 0H31.4214C32.999 0 34.2779 1.27889 34.2779 2.85649V19.9954C34.2779 21.573 32.999 22.8519 31.4214 22.8519H2.85649C1.27889 22.8519 0 21.573 0 19.9954V2.85649C0 1.27889 1.27889 0 2.85649 0Z" fill="black" fill-opacity="0.07"/>
</svg>
