<svg width="278" height="51" viewBox="0 0 278 51" fill="none" xmlns="http://www.w3.org/2000/svg">
<path d="M124.396 0H131.557V39.95H124.396V0Z" fill="white"/>
<path d="M182.382 16.8311V10.6316H174.979V2.54883H167.818V32.0165C167.818 34.7241 168.499 36.7875 169.842 38.1496C171.185 39.5129 173.277 40.204 176.061 40.204H182.382V34.0046H177.757C176.751 34.0046 176.029 33.7834 175.611 33.3466C175.227 32.947 174.979 31.9371 174.979 30.7745V16.8311H182.382Z" fill="white"/>
<path d="M83.161 10.6308L75.7574 32.1741L68.3539 10.6308H60.8314L71.5192 39.9504H79.9957L90.6834 10.6308H83.161Z" fill="white"/>
<path d="M156.147 25.3187C156.147 27.1749 155.866 28.7897 155.311 30.1182C154.761 31.4396 153.973 32.4525 152.968 33.1282C151.963 33.8039 150.728 34.1468 149.297 34.1468C147.25 34.1468 145.705 33.4738 144.706 32.1477C143.697 30.8073 143.185 28.7758 143.185 26.1101V10.6316H136.024V26.9015C136.024 29.435 136.341 31.5837 136.966 33.2874C137.592 34.9962 138.451 36.3863 139.521 37.4183C140.589 38.449 141.837 39.1934 143.23 39.6318C144.615 40.0678 146.105 40.2885 147.659 40.2885C149.898 40.2885 151.751 39.8826 153.165 39.0817C154.454 38.3491 155.535 37.4925 156.382 36.5321L157.023 39.9501H163.308V10.6316H156.147L156.147 25.3187Z" fill="white"/>
<path fill-rule="evenodd" clip-rule="evenodd" d="M105.487 10.2928C108.514 10.2928 111.193 10.9266 113.45 12.1777C115.709 13.4308 117.488 15.2016 118.741 17.4404C119.992 19.678 120.626 22.3287 120.626 25.3186C120.626 28.2718 119.992 30.904 118.741 33.1416C117.489 35.3796 115.709 37.15 113.45 38.4031C111.193 39.6542 108.514 40.2881 105.487 40.2881C102.497 40.2881 99.8273 39.6542 97.5521 38.4035C95.2739 37.1496 93.4837 35.3792 92.2322 33.1416C90.9819 30.9052 90.348 28.273 90.348 25.3186C90.348 22.3275 90.9819 19.6769 92.2322 17.4404C93.4845 15.202 95.2742 13.4312 97.5521 12.1773C99.8273 10.9266 102.497 10.2928 105.487 10.2928ZM105.487 34.2589C107.107 34.2589 108.514 33.8778 109.667 33.1266C110.823 32.3743 111.736 31.3124 112.38 29.9696C113.026 28.6226 113.353 27.0575 113.353 25.3187C113.353 23.5435 113.025 21.9698 112.38 20.6413C111.736 19.3168 110.823 18.254 109.666 17.4823C108.512 16.7126 107.106 16.3221 105.487 16.3221C103.905 16.3221 102.508 16.7126 101.336 17.4832C100.16 18.2544 99.2377 19.3168 98.5951 20.6409C97.949 21.9663 97.6217 23.54 97.6217 25.3187C97.6217 27.0615 97.9494 28.6262 98.5951 29.9697C99.2381 31.312 100.159 32.374 101.334 33.1263C102.507 33.8778 103.904 34.2589 105.487 34.2589Z" fill="white"/>
<path d="M7.44166 9.85985H0V39.9515H7.44166V9.85985Z" fill="white"/>
<path d="M19.1873 0.000305176C25.5788 0.000305176 30.7785 5.19522 30.7785 11.5804C30.7785 17.72 25.8718 22.8426 19.7749 23.1487L31.8815 39.9514H23.0399L10.9613 23.1945C10.9049 23.1164 10.8748 23.0235 10.8748 22.9264V17.2149C10.8748 16.9621 11.0806 16.7568 11.3333 16.7568H18.4523C19.8496 16.7568 21.1588 16.2066 22.1386 15.2083C23.118 14.2103 23.6429 12.8905 23.6164 11.492C23.5635 8.69902 21.1674 6.42661 18.275 6.42661H0V0.000305176H19.1873Z" fill="white"/>
<path fill-rule="evenodd" clip-rule="evenodd" d="M53.6599 12.0071C51.5163 10.8694 48.971 10.2928 46.0948 10.2928C43.215 10.2928 40.6402 10.927 38.4416 12.1785C36.2396 13.4311 34.507 15.2024 33.2927 17.442C32.0795 19.6765 31.4646 22.3457 31.4646 25.3759C31.4646 28.3291 32.089 30.9605 33.3211 33.1973C34.556 35.4392 36.3371 37.2006 38.6142 38.4323C40.8869 39.6641 43.613 40.2885 46.7163 40.2885C49.1783 40.2885 51.389 39.8272 53.2874 38.9169C55.1862 38.0043 56.7362 36.7615 57.8949 35.2228C58.9955 33.7605 59.738 32.1065 60.1013 30.3073L60.1404 30.1153H53.0197L52.9861 30.2306C52.594 31.5726 51.8334 32.633 50.7244 33.3829C49.5341 34.1893 48.0722 34.5985 46.3784 34.5985C44.9428 34.5985 43.6463 34.2909 42.5251 33.6843C41.4095 33.0812 40.5371 32.2187 39.9329 31.12C39.3263 30.0174 38.9811 28.6909 38.9073 27.1851V26.9497H60.4166L60.4406 26.8182C60.5157 26.4055 60.5639 25.9802 60.5848 25.5525C60.6026 25.1359 60.6128 24.7196 60.6128 24.2994C60.5745 21.4588 59.9395 18.9601 58.7259 16.8722C57.5076 14.7818 55.8031 13.1449 53.6599 12.0071ZM51.0506 17.5285C52.2741 18.558 53.0351 20.0212 53.3143 21.8801H39.1545C39.3164 20.674 39.7168 19.6295 40.3459 18.7725C41.0058 17.8737 41.8513 17.1675 42.8592 16.6735C43.8682 16.1779 44.976 15.9263 46.1513 15.9263C48.1381 15.9263 49.7865 16.4654 51.0506 17.5285Z" fill="white"/>
<path fill-rule="evenodd" clip-rule="evenodd" d="M210.562 25.0885C218.297 25.0885 223.38 20.3918 223.38 13.1542C223.38 5.91666 218.297 1.27566 210.562 1.27566H195.7V39.9501H200.506V25.0885H210.562ZM218.462 13.1542C218.462 17.7402 215.203 20.6682 210.12 20.6682H200.506V5.69593H210.175C215.258 5.69593 218.462 8.56897 218.462 13.1542Z" fill="white"/>
<path fill-rule="evenodd" clip-rule="evenodd" d="M224.597 32.0496C224.597 26.4143 228.52 23.2648 235.923 23.2648H244.21V21.3311C244.21 17.6845 241.614 15.4751 237.194 15.4751C233.216 15.4751 230.564 17.353 230.011 20.2261H225.481C226.144 14.7015 230.619 11.442 237.414 11.442C244.597 11.442 248.741 15.033 248.741 21.6076V39.9501H244.818L244.431 35.5306C242.663 38.0714 239.846 40.2815 234.983 40.2815C228.796 40.2815 224.597 37.1878 224.597 32.0496ZM235.315 36.4141C240.95 36.4141 244.21 33.1547 244.21 28.4587V27.0772H235.481C231.448 27.0772 229.182 28.5687 229.182 31.7731C229.182 34.5354 231.558 36.4141 235.315 36.4141Z" fill="white"/>
<path d="M264.654 34.2597L255.98 11.7734L251.173 11.7735L262.167 40.1158L260.787 43.541C259.736 46.1933 259.294 46.8562 256.698 46.8562H252.665V51H258.079C262.057 51 263.107 49.232 264.875 44.7018L277.858 11.7734H273.052L264.654 34.2597Z" fill="white"/>
</svg>
