<svg width="182" height="40" viewBox="0 0 182 40" fill="none" xmlns="http://www.w3.org/2000/svg">
<path d="M130.614 0H123.505V39.664H130.614V0Z" fill="white"/>
<path d="M181.076 10.5555V16.7106H173.725V30.5541C173.725 31.7085 173.972 32.711 174.353 33.1078C174.768 33.5415 175.485 33.7611 176.484 33.7611H181.076V39.9161H174.8C172.036 39.9161 169.959 39.23 168.626 37.8765C167.292 36.5241 166.616 34.4755 166.616 31.7873V2.53058H173.725V10.5555H181.076Z" fill="white"/>
<path d="M75.2146 31.9437L82.5652 10.5547H90.0337L79.4226 39.6643H71.0067L60.3955 10.5547H67.8641L75.2146 31.9437Z" fill="white"/>
<path d="M154.199 29.9025C154.749 28.5835 155.028 26.9802 155.028 25.1374V10.5555H162.138V39.6639H155.898L155.261 36.2704C154.421 37.224 153.348 38.0744 152.067 38.8017C150.664 39.5969 148.824 40 146.601 40C145.058 40 143.579 39.7808 142.204 39.3479C140.821 38.9127 139.582 38.1736 138.521 37.1503C137.46 36.1257 136.606 34.7456 135.985 33.049C135.364 31.3575 135.05 29.2241 135.05 26.7089V10.5555H142.159V25.9231C142.159 28.5697 142.667 30.5867 143.67 31.9174C144.662 33.2341 146.195 33.9022 148.228 33.9022C149.648 33.9022 150.875 33.5618 151.872 32.891C152.87 32.2201 153.652 31.2144 154.199 29.9025Z" fill="white"/>
<path fill-rule="evenodd" clip-rule="evenodd" d="M112.637 12.0906C110.397 10.8484 107.737 10.2191 104.731 10.2191C101.763 10.2191 99.1123 10.8484 96.8534 12.0902C94.5918 13.3351 92.8149 15.0932 91.5716 17.3156C90.3302 19.536 89.7009 22.1677 89.7009 25.1374C89.7009 28.0707 90.3302 30.684 91.5716 32.9044C92.8141 35.126 94.5915 36.8837 96.8534 38.1286C99.1123 39.3703 101.763 39.9996 104.731 39.9996C107.737 39.9996 110.397 39.3703 112.637 38.1282C114.88 36.8841 116.648 35.1263 117.891 32.9043C119.132 30.6827 119.762 28.0694 119.762 25.1374C119.762 22.1688 119.132 19.5371 117.891 17.3155C116.647 15.0928 114.88 13.3347 112.637 12.0906ZM108.882 32.8894C107.736 33.6352 106.34 34.0136 104.732 34.0136C103.16 34.0136 101.773 33.6352 100.608 32.8891C99.442 32.1421 98.5272 31.0878 97.8889 29.7551C97.2479 28.4212 96.9224 26.8677 96.9224 25.1374C96.9224 23.3714 97.2475 21.809 97.8889 20.4931C98.5269 19.1784 99.4424 18.1237 100.61 17.358C101.774 16.593 103.161 16.2052 104.732 16.2052C106.339 16.2052 107.735 16.593 108.88 17.3572C110.029 18.1233 110.936 19.1784 111.575 20.4935C112.216 21.8125 112.541 23.375 112.541 25.1375C112.541 26.8639 112.216 28.4177 111.575 29.7551C110.936 31.0882 110.03 32.1425 108.882 32.8894Z" fill="white"/>
<path d="M0 9.78894H7.3882V39.6643H0V9.78894Z" fill="white"/>
<path d="M30.5573 11.4973C30.5573 5.15798 25.395 0.000427246 19.0494 0.000427246H0V6.38053H18.1437C21.0154 6.38053 23.3941 8.63663 23.4467 11.4095C23.4729 12.7979 22.9519 14.1082 21.9795 15.0991C21.0067 16.0903 19.707 16.6365 18.3197 16.6365H11.2519C11.0009 16.6365 10.7966 16.8404 10.7966 17.0913V22.7618C10.7966 22.8582 10.8264 22.9504 10.8825 23.028L22.8743 39.6645H31.6524L19.6328 22.9825C25.6859 22.6786 30.5573 17.5928 30.5573 11.4973Z" fill="white"/>
<path fill-rule="evenodd" clip-rule="evenodd" d="M45.7645 10.2191C48.6201 10.2191 51.1471 10.7916 53.2754 11.9212C55.4032 13.0508 57.0955 14.676 58.3051 16.7514C59.51 18.8244 60.1404 21.3052 60.1785 24.1255C60.1785 24.5427 60.1683 24.9559 60.1506 25.3696C60.1299 25.7942 60.082 26.2165 60.0075 26.6262L59.9836 26.7568H38.6284V26.9905C38.7017 28.4855 39.0444 29.8026 39.6466 30.8973C40.2465 31.9881 41.1127 32.8444 42.2203 33.4431C43.3335 34.0454 44.6207 34.3508 46.046 34.3508C47.7276 34.3508 49.1792 33.9446 50.3609 33.144C51.4619 32.3994 52.2171 31.3466 52.6064 30.0143L52.6398 29.8998H59.7096L59.6708 30.0903C59.3101 31.8767 58.5729 33.5188 57.4802 34.9707C56.3298 36.4982 54.7908 37.7322 52.9056 38.6383C51.0209 39.5421 48.8259 40 46.3816 40C43.3006 40 40.5939 39.3801 38.3374 38.1572C36.0766 36.9343 34.3083 35.1855 33.0822 32.9596C31.8589 30.7388 31.239 28.1263 31.239 25.1943C31.239 22.1858 31.8495 19.5356 33.054 17.3172C34.2597 15.0936 35.9798 13.3351 38.1661 12.0914C40.3489 10.8488 42.9053 10.2191 45.7645 10.2191ZM52.9323 21.7235C52.6551 19.8779 51.8995 18.4252 50.6848 17.403C49.4297 16.3475 47.7931 15.8123 45.8205 15.8123C44.6536 15.8123 43.5538 16.0621 42.552 16.5542C41.5514 17.0447 40.712 17.7457 40.0568 18.6381C39.4322 19.4889 39.0346 20.526 38.8738 21.7235H52.9323Z" fill="white"/>
</svg>
